<svg width="221" height="201" viewBox="0 0 221 201" fill="none" xmlns="http://www.w3.org/2000/svg">
<g clip-path="url(#clip0_388_3149)">
<path d="M204.195 198.04C204.195 198.1 161.325 198.16 108.425 198.16C55.525 198.16 12.655 198.11 12.655 198.04C12.655 197.97 55.525 197.92 108.425 197.92C161.325 197.92 204.195 197.97 204.195 198.04Z" fill="#263238"/>
<path d="M203.215 94.63C197.815 97.4 193.715 102.21 190.725 107.5C187.735 112.79 185.845 118.6 183.945 124.37L182.285 154.1C188.555 143.43 193.585 130.9 194.945 118.6L190.775 118.23C193.575 117.81 195.915 115.78 197.415 113.37C198.915 110.96 199.695 108.19 200.425 105.47L195.335 106.23C199.355 103.52 202.175 99.37 203.215 94.64V94.63Z" fill="#455A64"/>
<g opacity="0.3">
<path d="M203.215 94.63C197.815 97.4 193.715 102.21 190.725 107.5C187.735 112.79 185.845 118.6 183.945 124.37L182.285 154.1C188.555 143.43 193.585 130.9 194.945 118.6L190.775 118.23C193.575 117.81 195.915 115.78 197.415 113.37C198.915 110.96 199.695 108.19 200.425 105.47L195.335 106.23C199.355 103.52 202.175 99.37 203.215 94.64V94.63Z" fill="black"/>
</g>
<path d="M181.355 161.07C181.355 161.07 167.745 144.8 167.905 129.23H173.405C173.405 129.23 167.435 125.3 167.905 123.11C168.375 120.92 168.535 112.58 168.535 112.58L173.555 113.83C173.555 113.83 169.785 111.95 169.315 108.96C168.845 105.97 170.415 92.15 170.415 92.15C170.415 92.15 176.545 98.59 178.425 105.19C180.305 111.79 185.265 119.48 183.805 139.59C182.345 159.7 181.365 161.07 181.365 161.07H181.355Z" fill="#455A64"/>
<path d="M188.235 162.58C188.235 162.58 202.975 152.76 206.255 140.23L201.835 139.03C201.835 139.03 207.495 137.18 207.595 135.31C207.695 133.44 209.395 126.71 209.395 126.71L205.075 126.62C205.075 126.62 208.525 125.93 209.555 123.63C210.585 121.33 212.345 109.88 212.345 109.88C212.345 109.88 206.015 113.72 203.055 118.61C200.095 123.5 194.435 128.61 191.195 145.09C187.955 161.57 188.235 162.58 188.235 162.58Z" fill="#455A64"/>
<path d="M174.135 106.35C174.155 106.41 174.165 106.46 174.185 106.52C174.215 106.64 174.255 106.81 174.305 107.02C174.405 107.48 174.555 108.12 174.735 108.95C174.915 109.78 175.145 110.82 175.385 112.02C175.625 113.22 175.905 114.58 176.185 116.09C176.765 119.11 177.375 122.72 178.005 126.74C178.635 130.76 179.235 135.19 179.775 139.85C180.315 144.51 180.725 148.97 181.045 153.03C181.365 157.09 181.575 160.74 181.695 163.82C181.765 165.36 181.805 166.75 181.845 167.97C181.885 169.19 181.905 170.25 181.915 171.1C181.925 171.95 181.915 172.61 181.915 173.08V173.6C181.915 173.66 181.915 173.72 181.915 173.77C181.915 173.71 181.915 173.65 181.915 173.6C181.915 173.47 181.915 173.3 181.895 173.08C181.895 172.62 181.855 171.95 181.825 171.1C181.795 170.25 181.775 169.19 181.715 167.97C181.655 166.75 181.615 165.36 181.525 163.82C181.375 160.75 181.135 157.09 180.825 153.04C180.515 148.99 180.075 144.54 179.545 139.87C179.015 135.2 178.395 130.79 177.795 126.77C177.195 122.75 176.575 119.14 176.015 116.12C175.755 114.61 175.475 113.24 175.245 112.04C175.015 110.84 174.815 109.81 174.645 108.97C174.475 108.13 174.345 107.48 174.255 107.03L174.155 106.52C174.145 106.46 174.135 106.4 174.135 106.34V106.35Z" fill="#263238"/>
<path d="M179.465 171.04C179.465 171.04 167.015 156.9 163.145 148.37L166.065 147.12C163.945 147.47 161.785 146.56 160.135 145.18C158.485 143.8 157.285 141.99 156.105 140.19L159.945 139.54C156.415 138.53 153.405 136.2 151.545 133.03C156.085 133.77 160.185 136.27 163.575 139.38C166.315 141.9 168.635 144.85 170.875 147.83C171.965 149.29 172.915 150.84 173.705 152.48C175.795 156.81 179.475 165.85 179.465 171.04Z" fill="#455A64"/>
<path d="M206.475 118.11C206.475 118.11 206.435 118.21 206.415 118.25L206.225 118.66C206.045 119.03 205.795 119.57 205.465 120.23C204.795 121.6 203.855 123.56 202.705 126.01C201.555 128.46 200.235 131.39 198.815 134.68C197.395 137.96 195.905 141.6 194.415 145.44C192.925 149.28 191.595 152.99 190.425 156.39C189.255 159.79 188.275 162.83 187.475 165.42C186.675 168.01 186.045 170.1 185.655 171.55C185.445 172.27 185.285 172.83 185.165 173.22C185.115 173.4 185.065 173.54 185.035 173.65C185.025 173.7 185.005 173.75 184.985 173.8C184.985 173.75 184.995 173.7 185.015 173.65C185.045 173.54 185.085 173.39 185.125 173.19C185.225 172.79 185.385 172.23 185.585 171.51C185.975 170.05 186.575 167.94 187.355 165.35C188.135 162.76 189.115 159.69 190.265 156.3C191.415 152.91 192.755 149.21 194.235 145.35C195.715 141.49 197.235 137.87 198.655 134.58C200.075 131.29 201.425 128.37 202.595 125.91C203.765 123.45 204.725 121.51 205.425 120.16L206.225 118.61L206.435 118.21C206.445 118.14 206.485 118.09 206.485 118.1L206.475 118.11Z" fill="#263238"/>
<path d="M180.525 177.1C180.495 177.02 180.475 176.93 180.465 176.84C180.435 176.64 180.395 176.38 180.345 176.09C180.295 175.8 180.235 175.36 180.155 174.9C180.075 174.44 179.995 173.91 179.865 173.34C179.645 172.18 179.325 170.82 178.915 169.31C178.505 167.8 177.975 166.18 177.345 164.49C176.715 162.8 176.015 161.24 175.335 159.84C174.655 158.44 173.965 157.2 173.385 156.19C173.095 155.67 172.815 155.23 172.565 154.82C172.315 154.41 172.105 154.08 171.925 153.8C171.745 153.52 171.625 153.34 171.515 153.16C171.465 153.09 171.425 153.01 171.385 152.93C171.445 152.99 171.505 153.06 171.555 153.14L172.015 153.76C172.205 154.03 172.435 154.36 172.685 154.76C172.935 155.16 173.235 155.6 173.535 156.13C174.155 157.14 174.835 158.37 175.535 159.78C176.235 161.19 176.925 162.76 177.565 164.45C178.205 166.14 178.705 167.78 179.125 169.29C179.545 170.8 179.825 172.18 180.035 173.34C180.155 173.92 180.225 174.45 180.295 174.91C180.365 175.37 180.415 175.78 180.455 176.1C180.495 176.42 180.505 176.66 180.535 176.86C180.535 176.94 180.535 177.02 180.525 177.09V177.1Z" fill="#263238"/>
<path d="M196.955 173.77H169.695V179.33H196.955V173.77Z" fill="#FEBE24"/>
<path d="M172.295 179.33L175.245 198.04H191.715L194.465 179.33H172.295Z" fill="#FEBE24"/>
<path d="M195.285 179.33C195.285 179.39 190.125 179.45 183.765 179.45C177.405 179.45 172.245 179.4 172.245 179.33C172.245 179.26 177.405 179.21 183.765 179.21C190.125 179.21 195.285 179.26 195.285 179.33Z" fill="#263238"/>
<path d="M64.6448 37.59C65.1048 35.37 66.6648 34.18 68.7448 33.31C70.8848 32.44 73.3148 32.68 75.2548 33.93C76.5248 34.77 77.5348 36.04 79.0148 36.44C81.4248 37.11 84.0648 35.16 86.3948 36.07C88.0548 36.72 88.8648 38.59 88.2148 40.25C87.7348 41.46 86.5748 42.27 85.2748 42.3C86.8548 42.76 87.4748 44.92 86.6648 46.35C85.8548 47.78 84.0448 48.42 82.4148 48.22C80.7848 48.02 79.3148 47.14 78.0348 46.13C76.7548 45.12 75.5748 43.95 74.2048 43.05C72.8348 42.15 71.2148 41.49 69.5848 41.68C67.3848 41.94 65.5848 43.74 64.7348 45.78C63.8848 47.82 63.8248 50.11 63.8248 52.33C63.8248 54.55 63.9548 56.8 63.4448 58.96C63.4248 59.22 63.2748 59.46 63.0448 59.59C62.6948 59.72 62.3648 59.36 62.1648 59.04C59.8948 55.42 58.3648 51.39 57.6548 47.18C57.2448 44.74 57.1548 42.42 58.3648 40.27C59.5748 38.12 62.8748 36.37 64.6348 37.56" fill="#263238"/>
<path d="M61.0351 48.14L61.4951 70.81C61.5851 75.04 63.7051 79.42 70.3951 78.98C76.1651 78.16 76.3251 74.11 76.2951 69.09C76.2951 69.09 82.6251 68.36 82.9451 62.09C83.1051 59.05 82.9151 52.78 82.6851 47.1C82.4351 41 77.5451 36.11 71.4451 35.87H70.8351C64.2951 35.97 60.7351 41.6 61.0351 48.15V48.14Z" fill="#FFBE9D"/>
<path d="M76.2951 69.09C73.3951 68.97 70.5851 68.02 68.2051 66.35C68.2051 66.35 69.9851 71.3 76.2851 70.99V69.09H76.2951Z" fill="#EB996E"/>
<path d="M80.465 53.4C80.445 53.89 80.045 54.27 79.555 54.27C79.085 54.29 78.685 53.93 78.665 53.45C78.665 53.45 78.665 53.43 78.665 53.42C78.685 52.93 79.085 52.55 79.575 52.55C80.045 52.53 80.445 52.9 80.465 53.37C80.465 53.37 80.465 53.38 80.465 53.39V53.4Z" fill="#263238"/>
<path d="M81.2148 50.12C81.1048 50.23 80.4348 49.7 79.4748 49.66C78.5148 49.62 77.7848 50.08 77.6848 49.96C77.6348 49.91 77.7548 49.7 78.0748 49.5C78.5048 49.23 79.0048 49.09 79.5148 49.12C80.0148 49.14 80.4948 49.32 80.8848 49.63C81.1848 49.86 81.2748 50.07 81.2248 50.12H81.2148Z" fill="#263238"/>
<path d="M71.5148 53.01C71.4948 53.5 71.0948 53.88 70.6048 53.88C70.1348 53.91 69.7248 53.55 69.6948 53.08C69.6948 53.07 69.6948 53.05 69.6948 53.04C69.7148 52.55 70.1148 52.17 70.6048 52.17C71.0748 52.14 71.4848 52.5 71.5148 52.97C71.5148 52.98 71.5148 53 71.5148 53.01Z" fill="#263238"/>
<path d="M71.7148 49.94C71.6048 50.05 70.9348 49.52 69.9748 49.48C69.0148 49.44 68.2848 49.9 68.1848 49.78C68.0848 49.66 68.2548 49.52 68.5748 49.32C69.0048 49.05 69.5048 48.91 70.0148 48.94C70.5148 48.96 70.9948 49.14 71.3848 49.45C71.6848 49.66 71.7748 49.87 71.7248 49.94H71.7148Z" fill="#263238"/>
<path d="M74.9348 57.24C75.4548 57.1 75.9748 57.03 76.5148 57.02C76.7648 57.02 76.9948 56.97 77.0448 56.8C77.0748 56.55 77.0248 56.29 76.9048 56.07C76.6948 55.46 76.4848 54.83 76.2448 54.16C75.3348 51.42 74.6948 49.22 74.8048 49.18C74.9148 49.14 75.7348 51.31 76.6248 54.03C76.8348 54.7 77.0448 55.33 77.2448 55.95C77.3848 56.25 77.4248 56.6 77.3348 56.92C77.2548 57.09 77.1048 57.22 76.9148 57.27C76.7748 57.3 76.6348 57.31 76.4948 57.31C75.9748 57.36 75.4448 57.33 74.9248 57.25L74.9348 57.24Z" fill="#263238"/>
<path d="M72.1147 46.14C72.0147 46.4 71.0447 46.24 69.9147 46.33C68.7847 46.42 67.8447 46.69 67.7047 46.45C67.6447 46.33 67.8047 46.09 68.1847 45.85C68.6847 45.55 69.2547 45.38 69.8447 45.34C70.4247 45.29 71.0147 45.39 71.5547 45.61C71.9447 45.8 72.1647 46.01 72.1247 46.13L72.1147 46.14Z" fill="#263238"/>
<path d="M80.9747 47.31C80.7947 47.52 80.1447 47.27 79.3347 47.23C78.5247 47.19 77.8547 47.32 77.7047 47.08C77.6447 46.97 77.7547 46.75 78.0647 46.56C78.4647 46.32 78.9347 46.21 79.4047 46.25C79.8747 46.28 80.3247 46.45 80.6947 46.74C80.9647 46.98 81.0647 47.21 80.9747 47.31Z" fill="#263238"/>
<path d="M61.3548 52.81C61.2548 52.76 57.0848 51.36 57.0548 55.66C57.0248 59.96 61.3448 59.11 61.3548 58.98C61.3648 58.85 61.3548 52.8 61.3548 52.8V52.81Z" fill="#FFBE9D"/>
<path d="M60.0548 57.35C60.0548 57.35 59.9848 57.4 59.8548 57.46C59.6748 57.53 59.4748 57.53 59.2948 57.46C58.8348 57.29 58.4648 56.55 58.4548 55.79C58.4548 55.42 58.5248 55.05 58.6748 54.72C58.7548 54.45 58.9748 54.24 59.2448 54.15C59.4248 54.1 59.6248 54.19 59.7048 54.36C59.7548 54.48 59.7348 54.57 59.7548 54.57C59.7748 54.57 59.8548 54.5 59.8148 54.32C59.7948 54.21 59.7348 54.11 59.6448 54.05C59.5248 53.96 59.3748 53.92 59.2248 53.94C58.8648 54.01 58.5648 54.26 58.4348 54.6C58.2448 54.97 58.1548 55.38 58.1648 55.8C58.1848 56.67 58.6248 57.48 59.2448 57.67C59.4748 57.74 59.7248 57.7 59.9248 57.56C60.0448 57.47 60.0848 57.37 60.0548 57.36V57.35Z" fill="#EB996E"/>
<path d="M82.9948 41.24C82.4348 40 81.5648 38.92 80.4748 38.09C78.2148 36.21 75.4048 35.09 72.4748 34.89C69.5248 34.7 66.6148 35.67 64.3648 37.59C62.6248 39.18 61.3948 41.24 60.8148 43.52C60.2448 45.8 60.1448 48.17 60.4948 50.49C60.6348 51.51 60.8648 52.57 61.5448 53.34C61.9648 53.82 62.7248 54.16 63.2448 53.8C63.5248 53.55 63.7248 53.2 63.7848 52.83C64.7448 49.55 65.7048 46.02 64.6148 42.77C65.4448 41.7 66.4948 40.81 67.6848 40.17C68.8848 39.52 70.3048 39.38 71.6048 39.79C73.4948 40.46 74.6048 42.37 76.0748 43.72C78.2448 45.67 81.2148 46.46 84.0648 45.84L82.9948 41.24Z" fill="#263238"/>
<path d="M75.4148 59.91C75.3148 60.3 75.1648 60.68 74.9548 61.03C74.7348 61.38 74.3748 61.62 73.9648 61.69C73.5248 61.72 73.0948 61.52 72.8348 61.17C72.5848 60.81 72.4448 60.39 72.4448 59.95C72.4448 59.56 72.5848 59.08 72.9748 59.01C73.1348 58.99 73.3048 59.01 73.4548 59.08L75.5548 59.77" fill="#EB996E"/>
<path d="M74.7049 61.65C74.3349 61.7 73.9649 61.68 73.6049 61.59C73.2349 61.47 72.9249 61.23 72.7349 60.9C72.5049 60.49 72.4649 60.01 72.6249 59.56C72.6649 59.45 72.7149 59.34 72.7849 59.25C72.8649 59.16 72.8449 59.16 72.9349 59.17C73.0249 59.18 73.1549 59.24 73.2749 59.28L73.6149 59.39C74.0749 59.54 74.4749 59.67 74.8149 59.77C75.1749 59.91 75.5649 60 75.9549 60.03C75.6349 59.81 75.2849 59.64 74.9049 59.52C74.5749 59.38 74.1749 59.23 73.7349 59.06L73.3949 58.94C73.2749 58.9 73.1749 58.85 73.0149 58.81C72.9149 58.79 72.8049 58.8 72.7149 58.84C72.6249 58.88 72.5549 58.95 72.5049 59.03C72.4149 59.15 72.3549 59.29 72.2949 59.43C72.1049 59.97 72.1649 60.57 72.4649 61.06C72.7149 61.45 73.1049 61.73 73.5549 61.83C73.8449 61.9 74.1549 61.89 74.4449 61.81C74.6449 61.74 74.7349 61.66 74.7249 61.65H74.7049Z" fill="#263238"/>
<path d="M87.6847 37.12C87.7147 37.21 87.7247 37.31 87.7347 37.41C87.7347 37.69 87.7147 37.98 87.6447 38.25C87.3547 39.26 86.6747 40.12 85.7447 40.63C84.5947 41.31 82.8947 41.41 81.2447 40.91C79.5947 40.41 77.9647 39.37 76.2747 38.37C74.5847 37.37 72.8147 36.62 71.1247 36.69C69.6247 36.76 68.1947 37.34 67.0547 38.31C66.2747 38.95 65.6147 39.73 65.0947 40.59C64.7347 41.21 64.5747 41.58 64.5547 41.57C64.5747 41.48 64.6047 41.38 64.6447 41.3C64.7447 41.04 64.8647 40.79 64.9947 40.54C65.4847 39.63 66.1447 38.83 66.9247 38.15C68.0847 37.12 69.5647 36.51 71.1147 36.42C72.8747 36.33 74.7147 37.12 76.4047 38.11C78.0947 39.1 79.6747 40.17 81.3047 40.64C82.9347 41.11 84.5247 41.06 85.6347 40.43C86.5347 39.96 87.2047 39.16 87.5247 38.2C87.6247 37.85 87.6747 37.48 87.6747 37.12H87.6847Z" fill="#455A64"/>
<path d="M58.1448 46.08C58.1748 45.68 58.2948 45.29 58.4748 44.94C58.8548 44.05 59.4148 43.25 60.1148 42.58C60.4948 42.21 60.9248 41.88 61.3748 41.6C61.7448 41.35 62.1748 41.19 62.6248 41.14C62.9348 41.12 63.2348 41.2 63.4948 41.36C63.6748 41.48 63.7248 41.59 63.7148 41.6C63.3948 41.39 63.0248 41.29 62.6448 41.33C61.9648 41.4 61.1148 42.01 60.3248 42.75C59.6548 43.4 59.0948 44.16 58.6648 45C58.3348 45.65 58.1948 46.09 58.1548 46.07L58.1448 46.08Z" fill="#455A64"/>
<path d="M58.7549 49.89C58.8149 49.49 58.9549 49.11 59.1549 48.76C59.5949 47.9 60.1949 47.13 60.9149 46.48C61.6449 45.83 62.4749 45.31 63.3849 44.96C63.7549 44.8 64.1449 44.7 64.5449 44.68C64.1849 44.85 63.8249 45 63.4549 45.14C62.5949 45.54 61.8049 46.06 61.0949 46.69C60.3949 47.33 59.7949 48.06 59.3249 48.87C58.9649 49.49 58.7949 49.91 58.7549 49.89Z" fill="#455A64"/>
<path d="M90.3848 112.01L113.265 121.22L109.615 127.76L83.6748 123.78L90.3848 112.01Z" fill="#FFBE9D"/>
<path d="M90.4349 85.38C90.5549 91.81 90.345 107.32 90.345 107.32L93.995 113.08L87.5749 121.75L80.1549 122.79L79.4249 128.54C79.4249 128.54 66.4349 134.35 56.035 130.82C47.945 128.08 38.495 137.3 38.495 137.3C38.495 137.3 37.625 135.8 39.035 122.79C40.375 110.39 42.6849 89.93 42.6849 89.93L50.155 71.23L61.445 69.27C66.1449 77.26 75.545 77.31 76.305 72.46L83.775 75.57C87.795 77.18 90.435 81.06 90.455 85.39H90.4349V85.38Z" fill="#FEBE24"/>
<path d="M83.965 87.34C84.025 87.34 83.235 94.73 82.205 103.83C81.165 112.93 80.275 120.3 80.205 120.29C80.135 120.28 80.925 112.9 81.965 103.8C83.005 94.7 83.895 87.34 83.965 87.34Z" fill="#263238"/>
<path d="M80.2549 104C80.2949 104.05 76.6049 106.48 72.0449 109.41C67.4849 112.34 63.7849 114.7 63.7349 114.62C63.6849 114.54 67.3849 112.14 71.9449 109.21C76.5049 106.28 80.2249 103.95 80.2549 104Z" fill="#263238"/>
<path d="M67.135 198.04H62.825L60.365 169.05H67.135V198.04Z" fill="#263238"/>
<path d="M33.5449 198.04H29.2349L26.7749 169.05H33.5449V198.04Z" fill="#263238"/>
<path d="M114.785 198.04H110.475L108.015 169.05H114.785V198.04Z" fill="#263238"/>
<path d="M45.3749 143.21L49.4749 80.36H10.7149C8.10487 80.36 5.99487 82.48 5.99487 85.08C5.99487 85.37 6.02487 85.65 6.07487 85.93L21.6749 170.12C26.6349 170.05 117.055 170.12 117.055 170.12V143.21H45.3749Z" fill="#455A64"/>
<path d="M102.865 160.86C102.865 160.93 94.2749 160.98 83.6749 160.98C73.0749 160.98 64.4849 160.93 64.4849 160.86C64.4849 160.79 73.0749 160.74 83.6749 160.74C94.2749 160.74 102.865 160.79 102.865 160.86Z" fill="#263238"/>
<path d="M137.195 175.49L139.985 188.8C139.985 188.8 154.455 190.43 155.205 192.84L129.595 199.17L124.395 178.62L137.195 175.49Z" fill="#FEBE24"/>
<path d="M131.785 189.65C131.315 189.93 131.135 190.52 131.355 191.02C131.615 191.51 132.215 191.72 132.725 191.48C133.225 191.18 133.425 190.55 133.185 190.02C132.855 189.54 132.215 189.41 131.725 189.72" fill="#E0E0E0"/>
<path d="M129.705 199.72L129.195 197.73L153.855 191.8C153.855 191.8 155.115 192.01 155.185 192.85L129.695 199.72H129.705Z" fill="#E0E0E0"/>
<path d="M140.355 188.58C140.385 188.7 139.775 188.92 139.255 189.47C138.735 190.02 138.545 190.63 138.415 190.61C138.285 190.59 138.295 189.82 138.935 189.16C139.575 188.5 140.355 188.44 140.355 188.58Z" fill="#263238"/>
<path d="M143.325 189.01C143.375 189.12 142.895 189.47 142.595 190.1C142.295 190.73 142.315 191.33 142.185 191.35C142.055 191.37 141.805 190.69 142.185 189.91C142.565 189.13 143.275 188.89 143.315 189.01H143.325Z" fill="#263238"/>
<path d="M145.645 191.85C145.545 191.9 145.185 191.32 145.365 190.55C145.545 189.78 146.035 189.37 146.115 189.46C146.195 189.55 145.925 190.01 145.805 190.64C145.685 191.27 145.765 191.8 145.645 191.85Z" fill="#263238"/>
<path d="M139.395 185.6C139.375 185.73 138.755 185.7 138.055 185.92C137.355 186.14 136.865 186.5 136.775 186.41C136.685 186.32 137.105 185.74 137.925 185.5C138.745 185.26 139.445 185.49 139.395 185.6Z" fill="#263238"/>
<g opacity="0.3">
<path d="M137.195 175.49L139.985 188.8C139.985 188.8 154.455 190.43 155.205 192.84L129.715 199.72L124.395 178.62L137.195 175.49Z" fill="black"/>
</g>
<path d="M123.585 135.37L139.795 182.43L125.795 187.61L100.005 136.03L57.1348 129.33L82.8948 122.41L119.575 131.68C121.455 132.16 122.955 133.55 123.585 135.38V135.37Z" fill="#263238"/>
<path d="M136.745 170.26L146.005 180.43C146.005 180.43 159.445 174.44 161.335 176.15L142.275 194.81L127.205 179.56L136.755 170.27L136.745 170.26Z" fill="#FEBE24"/>
<path d="M139.295 185.39C139.035 185.88 139.175 186.49 139.625 186.8C140.105 187.09 140.725 186.95 141.025 186.49C141.305 185.97 141.155 185.33 140.665 184.99C140.185 184.75 139.395 184.97 139.235 185.48" fill="#E0E0E0"/>
<path d="M142.635 195.22L141.175 193.74L159.625 175.91C159.625 175.91 160.835 175.45 161.325 176.14L142.635 195.21V195.22Z" fill="#E0E0E0"/>
<path d="M146.215 180.03C146.305 180.13 145.885 180.63 145.715 181.38C145.545 182.13 145.685 182.75 145.565 182.8C145.445 182.85 145.055 182.18 145.275 181.27C145.495 180.36 146.155 179.92 146.215 180.03Z" fill="#263238"/>
<path d="M149.015 178.9C149.125 178.97 148.875 179.52 148.945 180.22C149.015 180.92 149.335 181.43 149.235 181.52C149.135 181.61 148.565 181.14 148.495 180.26C148.425 179.38 148.935 178.81 149.015 178.9Z" fill="#263238"/>
<path d="M152.505 180.18C152.445 180.28 151.855 179.94 151.595 179.2C151.335 178.46 151.595 177.83 151.685 177.87C151.775 177.91 151.795 178.44 152.015 179.05C152.235 179.66 152.585 180.08 152.505 180.18Z" fill="#263238"/>
<path d="M143.845 177.95C143.895 178.07 143.335 178.36 142.845 178.91C142.355 179.46 142.105 180.03 141.975 180C141.845 179.97 141.925 179.25 142.505 178.61C143.085 177.97 143.815 177.83 143.835 177.95H143.845Z" fill="#263238"/>
<path d="M52.5348 149.14L89.9048 148.98L131.375 187.6L144.265 175.59C144.265 175.59 109.045 135.85 104.985 131.75C100.925 127.65 61.7148 124.91 61.7148 124.91L38.1448 135.16L38.6848 137.83C40.0048 144.43 45.8048 149.17 52.5348 149.14Z" fill="#263238"/>
<path d="M89.0247 144.07C89.2347 144.81 89.3747 145.58 89.4247 146.35C89.5547 147.11 89.6147 147.88 89.5847 148.66C89.3747 147.92 89.2447 147.15 89.1847 146.38C89.0547 145.62 88.9947 144.85 89.0247 144.07Z" fill="#455A64"/>
<path d="M139.965 170.79C139.825 170.98 139.675 171.16 139.505 171.33C139.195 171.67 138.735 172.15 138.165 172.74C137.025 173.92 135.425 175.53 133.605 177.25C131.785 178.97 130.115 180.5 128.885 181.59C128.265 182.13 127.765 182.57 127.415 182.86C127.245 183.03 127.055 183.18 126.855 183.32C127.005 183.14 127.175 182.97 127.355 182.81C127.715 182.47 128.195 182.02 128.775 181.49C129.975 180.37 131.635 178.83 133.445 177.11C135.255 175.39 136.875 173.79 138.045 172.65L139.435 171.28C139.595 171.1 139.775 170.94 139.965 170.8V170.79Z" fill="#455A64"/>
<path d="M117.645 174.82C117.645 174.82 117.735 174.89 117.895 175.03L118.605 175.68L121.345 178.2L131.435 187.54H131.325L144.195 175.51V175.66C138.765 169.32 132.255 162.38 125.435 155.01C122.425 151.75 119.505 148.57 116.665 145.46C113.825 142.35 111.195 139.34 108.725 136.37C107.595 134.89 106.295 133.54 104.855 132.35C104.155 131.81 103.385 131.36 102.575 131.01C101.775 130.68 100.945 130.43 100.105 130.25C98.4447 129.89 96.7947 129.68 95.2247 129.43L90.7147 128.73L77.1047 126.6L73.4047 126.01L72.4447 125.85C72.2247 125.81 72.1147 125.79 72.1147 125.79C72.1147 125.79 72.2247 125.79 72.4447 125.83L73.4147 125.97L77.1147 126.52L90.7347 128.58L95.2448 129.26C96.8048 129.51 98.4347 129.72 100.125 130.07C100.985 130.25 101.825 130.51 102.635 130.84C103.475 131.19 104.265 131.65 104.985 132.21C106.435 133.4 107.755 134.76 108.895 136.26C111.345 139.22 114.035 142.23 116.835 145.34C119.645 148.44 122.545 151.61 125.575 154.87C132.415 162.25 138.895 169.19 144.325 175.54L144.395 175.62L144.315 175.69C139.465 180.2 135.075 184.27 131.405 187.68L131.345 187.73L131.295 187.68L121.265 178.28L118.565 175.74C118.265 175.45 118.035 175.23 117.865 175.07C117.695 174.91 117.635 174.84 117.635 174.84L117.645 174.82Z" fill="#455A64"/>
<path d="M84.8549 119.26L73.5849 123.06L52.8349 114.62L41.7549 124.92L71.3649 130.23C72.3649 130.39 73.3949 130.32 74.3549 130.02L83.0849 127.28C83.0849 127.28 85.9349 130.5 86.5349 130.55C87.1349 130.6 88.3349 130.52 87.7549 129.45C87.1349 128.44 86.4549 127.46 85.7149 126.54C85.7149 126.54 89.7249 129.85 90.1749 129.4C90.6249 128.95 90.4449 127.93 89.7149 127.1C88.9849 126.27 86.6449 123.56 86.6449 123.56C86.6449 123.56 91.5849 127.66 92.0549 127.03C92.5249 126.4 92.7549 125.43 90.7749 123.53C89.4749 122.28 87.4749 120.51 86.4249 119.58C85.9949 119.2 85.3949 119.08 84.8549 119.26Z" fill="#FFBE9D"/>
<path d="M73.2747 123.16C72.9647 123.64 72.6047 124.09 72.1947 124.49C71.8547 124.94 71.4647 125.36 71.0347 125.73C71.2847 125.21 71.6247 124.74 72.0347 124.33C72.3847 123.87 72.7947 123.47 73.2747 123.15V123.16Z" fill="#EB996E"/>
<path d="M89.8951 127.31C89.5351 127.04 89.2151 126.71 88.9451 126.34C88.3951 125.7 87.6751 124.79 86.8651 123.81C86.0551 122.83 85.3351 121.8 84.4351 121.99C84.1151 122 83.7951 122.1 83.5251 122.26C83.4251 122.33 83.3251 122.4 83.2251 122.46C83.2251 122.46 83.2851 122.33 83.4751 122.18C83.7551 121.97 84.0751 121.85 84.4151 121.82C84.6551 121.8 84.8951 121.82 85.1251 121.88C85.2651 121.92 85.3851 121.98 85.5051 122.06C85.6051 122.15 85.7251 122.23 85.8151 122.33C86.2451 122.75 86.6551 123.2 87.0351 123.67C87.8551 124.66 88.5551 125.58 89.0551 126.24L89.6651 127.01C89.8051 127.2 89.8951 127.3 89.8751 127.31H89.8951Z" fill="#EB996E"/>
<path d="M81.9048 124.42C81.9048 124.42 81.9748 124.31 82.1648 124.18C82.4448 124.02 82.7548 123.94 83.0748 123.94C83.3048 123.94 83.5348 123.99 83.7448 124.07C83.9848 124.19 84.1848 124.36 84.3448 124.58C84.5148 124.79 84.6548 125.04 84.8048 125.27C84.9548 125.5 85.1548 125.73 85.3248 125.97C86.7948 127.9 87.8848 129.55 87.7848 129.62C87.7848 129.62 87.6948 129.52 87.5648 129.35L87.0048 128.6L85.1648 126.11C84.9848 125.86 84.8048 125.65 84.6348 125.39C84.4648 125.13 84.3348 124.91 84.1748 124.71C84.0448 124.52 83.8748 124.36 83.6648 124.25C83.4748 124.17 83.2748 124.12 83.0748 124.11C82.6548 124.09 82.2448 124.19 81.8848 124.41L81.9048 124.42Z" fill="#EB996E"/>
<path d="M91.0747 123.82C90.7447 123.61 90.4447 123.37 90.1647 123.09C89.6247 122.63 88.8747 121.96 88.0747 121.22L86.9347 120.17C86.6547 119.87 86.3247 119.61 85.9647 119.42C85.6147 119.27 85.2347 119.21 84.8647 119.26C84.8647 119.26 84.9647 119.18 85.1647 119.15C85.4547 119.11 85.7547 119.15 86.0347 119.26C86.2247 119.34 86.4048 119.44 86.5648 119.56C86.7448 119.69 86.9047 119.84 87.0847 120.02L88.2347 121.06C89.0447 121.8 89.7647 122.48 90.2847 122.98C90.5847 123.23 90.8447 123.51 91.0847 123.81L91.0747 123.82Z" fill="#EB996E"/>
<path d="M40.695 125.19C40.695 125.19 36.485 120.46 36.745 114.14C37.005 107.82 38.825 89.56 39.625 84.55C40.435 79.54 44.185 72.69 50.205 71.21C54.615 70.14 55.525 83.42 55.525 83.42L52.205 112.75L58.815 116.59L52.645 127.04L40.685 125.19H40.695Z" fill="#FEBE24"/>
<path d="M54.9349 81.95C54.9349 81.95 54.8349 81.31 54.5549 80.31C54.3949 79.73 54.1849 79.16 53.9349 78.6C53.6149 77.93 53.2349 77.29 52.8149 76.68C52.3749 76.08 51.8849 75.53 51.3449 75.02C50.9049 74.61 50.4249 74.23 49.9249 73.89C49.0649 73.32 48.4649 73.06 48.4849 73.02C48.6349 73.05 48.7749 73.1 48.9149 73.17C49.0849 73.24 49.2449 73.31 49.4049 73.4C49.6149 73.5 49.8249 73.62 50.0249 73.75C50.5549 74.07 51.0449 74.44 51.5049 74.86C52.0649 75.37 52.5749 75.94 53.0149 76.55C53.4549 77.17 53.8349 77.82 54.1449 78.51C54.3949 79.07 54.5949 79.66 54.7349 80.26C54.7949 80.49 54.8349 80.72 54.8749 80.96C54.9049 81.13 54.9349 81.31 54.9449 81.49C54.9749 81.64 54.9749 81.79 54.9449 81.95H54.9349Z" fill="#263238"/>
<path d="M52.1749 112.77C51.8449 113 51.4949 113.2 51.1349 113.38C50.2949 113.86 49.4749 114.38 48.6949 114.96C47.9249 115.54 47.1849 116.17 46.4749 116.83C46.1949 117.12 45.8849 117.39 45.5649 117.64C45.7849 117.3 46.0449 116.98 46.3449 116.71C47.0249 116 47.7549 115.35 48.5349 114.77C49.3249 114.19 50.1549 113.67 51.0349 113.24C51.3949 113.04 51.7749 112.88 52.1749 112.78V112.77Z" fill="#263238"/>
<path d="M95.9548 106.08L88.6948 132.42H122.565L130.815 107.34C131.075 106.54 130.635 105.68 129.835 105.41C129.685 105.36 129.535 105.34 129.385 105.33L97.4348 104.97C96.7448 104.97 96.1348 105.42 95.9548 106.08Z" fill="#E0E0E0"/>
<path d="M98.1448 104.97C98.2048 104.97 96.5648 111.14 94.4748 118.73C92.3848 126.32 90.6348 132.44 90.5748 132.41C90.5148 132.38 92.1548 126.23 94.2248 118.65C96.2948 111.07 98.0848 104.95 98.1448 104.97Z" fill="#263238"/>
<path d="M111.235 118.28C110.985 119.03 111.395 119.84 112.155 120.09C112.905 120.34 113.715 119.93 113.965 119.17C114.185 118.49 113.875 117.75 113.225 117.43C112.445 117.12 111.565 117.5 111.245 118.27L111.235 118.28Z" fill="white"/>
<path d="M88.6947 132.43H66.0347C66.0347 131.36 66.9047 130.49 67.9747 130.49H89.5447L88.7047 132.43H88.6947Z" fill="#E0E0E0"/>
<path d="M36.7449 114.16C36.7449 114.23 36.7449 114.3 36.7449 114.37V114.99C36.7449 115.25 36.7749 115.6 36.8149 116C36.8549 116.4 36.9249 116.85 37.0149 117.37C37.2649 118.6 37.6449 119.8 38.1549 120.95C38.8149 122.46 39.6849 123.88 40.7449 125.15L40.6949 125.12L52.6349 126.94L52.5249 126.99L57.3749 118.82L58.7449 116.52L58.7949 116.68L52.1849 112.84L52.1249 112.8V112.73C52.7349 106.02 53.2549 100.24 53.6249 96.13C53.8149 94.09 53.9749 92.48 54.0849 91.34C54.1349 90.79 54.1849 90.37 54.2149 90.06C54.2149 89.92 54.2449 89.81 54.2549 89.73V90.06C54.2349 90.36 54.2049 90.79 54.1649 91.34C54.0749 92.47 53.9449 94.08 53.7749 96.14C53.4249 100.24 52.9349 106.03 52.3649 112.74L52.3049 112.64L58.9249 116.48L59.0249 116.54L58.9649 116.64L57.5949 118.95L52.7749 127.1L52.7349 127.17H52.6649L40.7349 125.31H40.6949V125.29C38.8349 123.01 37.5649 120.3 37.0049 117.41C36.9249 116.96 36.8649 116.5 36.8349 116.04C36.8049 115.7 36.7849 115.37 36.7849 115.03V114.41C36.7849 114.33 36.7749 114.25 36.7849 114.17L36.7449 114.16Z" fill="#263238"/>
<path d="M19.7749 122.39C19.7749 122.39 59.8349 127.46 61.2749 128.87C62.5349 130.1 64.1349 162.62 64.4949 162.48L27.0949 161.06L19.7749 122.39Z" fill="#455A64"/>
<path d="M52.8249 170.03C52.7549 170.03 51.9149 160.65 50.9549 149.05C50.0049 137.45 49.2649 128.07 49.3349 128.07C49.4049 128.07 50.2449 137.45 51.1949 149.05C52.1449 160.65 52.8849 170.02 52.8249 170.03Z" fill="#263238"/>
<path d="M11.8948 80.36C11.9148 80.41 11.9348 80.46 11.9448 80.52L12.0548 80.98L12.4648 82.76C12.8148 84.32 13.3048 86.56 13.9248 89.32C15.1348 94.87 16.7948 102.55 18.6448 110.98C19.1048 113.09 19.5548 115.16 19.9748 117.15C20.1848 118.15 20.4048 119.12 20.6048 120.09C20.6548 120.33 20.7048 120.57 20.7648 120.81C20.8048 121.04 20.8648 121.27 20.9448 121.49C21.1248 121.91 21.4248 122.26 21.8148 122.49C22.0048 122.6 22.2148 122.68 22.4348 122.73C22.6448 122.78 22.8948 122.8 23.1048 122.83L24.4448 123.01L27.0048 123.34L31.6048 123.95L38.2548 124.86L40.0748 125.12L40.5348 125.19C40.5848 125.19 40.6448 125.21 40.6948 125.23H40.5348L40.0748 125.18L38.2548 124.97L31.5848 124.14L26.9848 123.56L24.4148 123.24L23.0748 123.07C22.8448 123.04 22.6148 123.02 22.3848 122.97C22.1448 122.92 21.9148 122.82 21.7048 122.7C21.2748 122.45 20.9348 122.06 20.7348 121.6C20.6448 121.37 20.5848 121.12 20.5348 120.88C20.4848 120.64 20.4348 120.42 20.3748 120.16C20.1648 119.2 19.9548 118.22 19.7348 117.23C19.3048 115.23 18.8548 113.17 18.3948 111.06C16.5748 102.6 14.9348 94.95 13.7448 89.39C13.1648 86.63 12.6948 84.37 12.3748 82.82C12.2148 82.05 12.0948 81.45 12.0148 81.03C11.9748 80.83 11.9448 80.68 11.9248 80.57C11.9048 80.46 11.8848 80.38 11.8848 80.38L11.8948 80.36Z" fill="#263238"/>
<path d="M61.865 131.45C61.935 131.45 62.695 140.12 63.575 150.78C64.455 161.44 65.115 170.12 65.045 170.13C64.975 170.14 64.215 161.46 63.335 150.8C62.455 140.14 61.795 131.46 61.865 131.45Z" fill="#263238"/>
<path d="M201.045 7.09H108.155V88.43H201.045V7.09Z" fill="white"/>
<path d="M201.035 27.1H108.375V88.43H201.035V27.1Z" fill="#EBEBEB"/>
<path d="M200.505 15.89C200.505 15.95 179.935 16.01 154.555 16.01C129.175 16.01 108.605 15.96 108.605 15.89C108.605 15.82 129.175 15.77 154.555 15.77C179.935 15.77 200.505 15.82 200.505 15.89Z" fill="#263238"/>
<path d="M113.185 12.73C113.964 12.73 114.595 12.0987 114.595 11.32C114.595 10.5413 113.964 9.91 113.185 9.91C112.407 9.91 111.775 10.5413 111.775 11.32C111.775 12.0987 112.407 12.73 113.185 12.73Z" fill="#263238"/>
<path d="M117.895 12.73C118.674 12.73 119.305 12.0987 119.305 11.32C119.305 10.5413 118.674 9.91 117.895 9.91C117.117 9.91 116.485 10.5413 116.485 11.32C116.485 12.0987 117.117 12.73 117.895 12.73Z" fill="#263238"/>
<path d="M124.025 11.32C124.025 12.1 123.395 12.73 122.615 12.73C121.835 12.73 121.205 12.1 121.205 11.32C121.205 10.54 121.835 9.91 122.615 9.91C123.395 9.91 124.025 10.54 124.025 11.32Z" fill="#263238"/>
<path d="M177.535 22.65C177.535 22.92 168.515 23.14 157.395 23.14C146.275 23.14 137.245 22.91 137.245 22.65C137.245 22.39 146.275 22.12 157.395 22.12C168.515 22.12 177.535 22.37 177.535 22.65Z" fill="#263238"/>
<path d="M201.035 88.43C201.035 87.59 200.995 56.05 200.935 7.09001L201.035 7.19001H108.155L108.275 7.07001V88.41L108.175 88.31L201.055 88.41L108.175 88.51H108.075V6.95001H201.175V7.07001C201.085 56.03 201.045 87.58 201.045 88.43H201.035Z" fill="#263238"/>
<path d="M131.305 32.8C131.305 33.2 128.465 33.55 124.975 33.55C121.485 33.55 118.645 33.2 118.645 32.8C118.645 32.4 121.475 32.02 124.975 32.02C128.475 32.02 131.305 32.37 131.305 32.8Z" fill="#FEBE24"/>
<path d="M175.575 32.8C175.575 33.2 172.885 33.55 169.575 33.55C166.265 33.55 163.575 33.2 163.575 32.8C163.575 32.4 166.255 32.02 169.575 32.02C172.895 32.02 175.575 32.37 175.575 32.8Z" fill="#FEBE24"/>
<path d="M200.505 14.76C204.228 14.76 207.245 11.7424 207.245 8.02C207.245 4.2976 204.228 1.28 200.505 1.28C196.783 1.28 193.765 4.2976 193.765 8.02C193.765 11.7424 196.783 14.76 200.505 14.76Z" fill="#FEBE24"/>
<path d="M202.338 5.18796L198.053 9.47302L199.007 10.4276L203.292 6.14255L202.338 5.18796Z" fill="white"/>
<path d="M199 5.1738L198.045 6.12839L202.33 10.4135L203.285 9.45887L199 5.1738Z" fill="white"/>
<path d="M138.075 37.96H116.485V84.27H138.075V37.96Z" fill="#FAFAFA"/>
<path d="M191.235 71.18H142.885V84.27H191.235V71.18Z" fill="#FAFAFA"/>
<path d="M191.235 54.59H142.885V67.68H191.235V54.59Z" fill="#FAFAFA"/>
<path d="M191.235 37.96H142.885V51.05H191.235V37.96Z" fill="#FAFAFA"/>
</g>
<defs>
<clipPath id="clip0_388_3149">
<rect width="220" height="200" fill="white" transform="translate(0.334961 0.5)"/>
</clipPath>
</defs>
</svg>
